<svg viewBox="0 0 64 64" fill="none" xmlns="http://www.w3.org/2000/svg">
  <defs>
    <linearGradient id="bg" x1="0%" y1="0%" x2="100%" y2="100%">
      <stop offset="0%" stop-color="#FF6B00"/>
      <stop offset="100%" stop-color="#E65100"/>
    </linearGradient>
  </defs>
  <rect width="64" height="64" rx="14" fill="url(#bg)"/>
  <rect width="64" height="64" rx="14" fill="none" stroke="white" stroke-opacity="0.18" stroke-width="1.2"/>
  <path d="M6 46V31c0-2 1.6-3.5 3.5-3.5h17V46H6z" fill="white" fill-opacity="0.95"/>
  <rect x="26.5" y="22" width="23" height="24" rx="2.5" fill="white" fill-opacity="0.95"/>
  <rect x="4" y="43" width="48" height="3.5" rx="1.8" fill="white" fill-opacity="0.9"/>
  <circle cx="17" cy="51" r="6.5" fill="white" fill-opacity="0.95"/>
  <circle cx="17" cy="51" r="4" fill="#E65100"/>
  <circle cx="17" cy="51" r="1.6" fill="white"/>
  <circle cx="45" cy="51" r="6.5" fill="white" fill-opacity="0.95"/>
  <circle cx="45" cy="51" r="4" fill="#E65100"/>
  <circle cx="45" cy="51" r="1.6" fill="white"/>
  <path d="M46 14l8 0M54 14l-3.5-3.5M54 14l-3.5 3.5" stroke="white" stroke-width="2.2" stroke-linecap="round" stroke-linejoin="round" stroke-opacity="0.9"/>
</svg>
