<svg viewBox="0 0 240 80" fill="none" xmlns="http://www.w3.org/2000/svg" width="240" height="80">
  <defs>
    <linearGradient id="bg" x1="0%" y1="0%" x2="100%" y2="100%">
      <stop offset="0%"   stop-color="#FF7520"/>
      <stop offset="100%" stop-color="#E05000"/>
    </linearGradient>
    <filter id="shadow">
      <feDropShadow dx="0" dy="3" stdDeviation="4" flood-color="#BF4000" flood-opacity="0.28"/>
    </filter>
  </defs>

  <!-- Icon background -->
  <rect x="0" y="8" width="64" height="64" rx="16" fill="url(#bg)" filter="url(#shadow)"/>

  <!-- Filled truck (offset y+8 for the icon position) -->
  <!-- Cargo box -->
  <path d="M28,26 L48,26 Q51,26 51,29 L51,49 L28,49 Z" fill="white"/>
  <!-- Cab -->
  <path d="M16,36 L28,36 L28,49 L14,49 Q12,49 12,47 L12,40 Q12,36 15,36 Z" fill="white"/>
  <!-- Window -->
  <path d="M14,38 L26,38 L26,42 L14,42 Q13,42 13,41 L13,39 Q13,38 14,38 Z" fill="url(#bg)"/>
  <!-- Cargo divider -->
  <rect x="38" y="28" width="0.8" height="20" fill="#E05000" fill-opacity="0.2"/>
  <!-- Wheels -->
  <circle cx="20" cy="53" r="5.5" fill="white"/>
  <circle cx="20" cy="53" r="2"   fill="url(#bg)"/>
  <circle cx="44" cy="53" r="5.5" fill="white"/>
  <circle cx="44" cy="53" r="2"   fill="url(#bg)"/>

  <!-- Text: NaqlGo -->
  <text x="76" y="47" font-family="'Segoe UI', Arial, sans-serif" font-weight="800" font-size="28" letter-spacing="-0.5" fill="#0F172A">Naql</text>
  <text x="141" y="47" font-family="'Segoe UI', Arial, sans-serif" font-weight="800" font-size="28" letter-spacing="-0.5" fill="#FF6B00">Go</text>

  <!-- Tagline -->
  <text x="77" y="62" font-family="'Segoe UI', Arial, sans-serif" font-weight="600" font-size="9.5" letter-spacing="2" fill="#E05000" fill-opacity="0.5">نقل وشحن</text>
</svg>
